<svg xmlns="http://www.w3.org/2000/svg" width="826.44629" height="748.28546"><svg xmlns="http://www.w3.org/2000/svg" xmlns:svg="http://www.w3.org/2000/svg" id="SvgjsSvg1010" width="826.44629" height="748.28546" version="1.1" viewBox="-24.793388 0 826.44629 748.28545"><g id="SvgjsG1007" transform="scale(8.26446)"><g id="SvgjsG1005" fill="#2a877a" transform="translate(-3.01)scale(1.06383)"><path id="SvgjsPath1003" d="M52 7.44a2.25 2.25 0 0 0-2.25 2.25v5.5c-15.17.4-23.74 3.29-24.12 3.42a2.2 2.2 0 0 0-1.16.94c-1.17 1.38-6.39 7.93-11.87 20.37H9.93A7 7 0 0 0 3 46.85v.37a7 7 0 0 0 6.94 6.95h.3V80a8.14 8.14 0 0 0 8.13 8.13h6.21A8.14 8.14 0 0 0 32.72 80h17v10.3a2.25 2.25 0 1 0 4.5 0V9.69A2.25 2.25 0 0 0 52 7.44" transform="translate(-2.99 -7.44)"/><path id="SvgjsPath1002" d="M76.67 29.86A20.32 20.32 0 1 0 97 50.17a20.32 20.32 0 0 0-20.33-20.31m4.58 24.85v6a1.9 1.9 0 0 1-1.9 1.9H74a1.9 1.9 0 0 1-1.9-1.9v-6a10.16 10.16 0 0 1 0-17v7.53a1.9 1.9 0 0 0 1.9 1.9h5.33a1.9 1.9 0 0 0 1.9-1.9v-7.53a10.16 10.16 0 0 1 0 17z" transform="translate(-2.99 -7.44)"/></g><g id="SvgjsG1001" fill="#2a2929" transform="translate(118.713 -8.375)scale(1.7873)"><path id="SvgjsPath1000" d="M7.56 17.08H.72V11.4h20.6l-.92 2.8-.92 2.88h-5.36l.12 1.12V40H7.56Zm13.08 2.04h6.08V30q0 1.4.24 2.34t.72 1.48 1.18.76 1.66.22q1.16 0 2.08-.12l-.08-.72V19.12h6.08v19.76q-1.48.52-3.54.92t-4.22.4q-2.04 0-3.9-.32t-3.26-1.36-2.22-3.02-.82-5.34zm22.84 4.96h-3.36l2.64-4.96h5.8l.52 2.24a8.7 8.7 0 0 1 2.38-1.8q1.38-.72 3.18-.72 3.64 0 5.4 1.94t1.76 6.14V40h-6.08V27.96q0-1.84-.9-2.64t-2.3-.8q-1.16 0-2.08.78t-.92 2.58V40h-6.04zm31.56-5.2q2.08 0 3.74.58a6.4 6.4 0 0 1 2.78 1.88q1.12 1.3 1.72 3.34t.6 4.92v.62l-.08 1.26H72.6l-.84-.12q.04 1.16.26 1.86t.64 1.1 1.02.56 1.36.2q1.24.08 2.14-.36t1.7-1.8q1.24.4 2.28.76.88.32 1.6.56t.72.2q-1.44 3-3.5 4.38t-4.94 1.38q-2.12 0-3.84-.56a6.9 6.9 0 0 1-2.92-1.82q-1.2-1.26-1.86-3.28t-.66-4.94q0-2.84.66-4.86t1.86-3.32a7.26 7.26 0 0 1 2.92-1.92q1.72-.62 3.84-.62m2.2 8 .6.08q-.08-1.4-.74-2.18T75.04 24q-1.6 0-2.3.78t-.86 2.18a5 5 0 0 1 .36-.06q.16-.02.36-.02zM87.76 11.4h6.56v15.28q0 2.24.2 3.78t.68 2.48 1.32 1.34 2.12.4q1.32 0 2.16-.4t1.32-1.32.68-2.46.2-3.82V11.4h6.56v16.48q0 2.96-.5 5.28t-1.74 3.94-3.34 2.48-5.34.86q-3.2 0-5.3-.86T90 37.1t-1.74-3.94-.5-5.28zm28.04 12.64h-4l2.64-4.92h6.32l.52 2.32a7.5 7.5 0 0 1 2.26-1.78q1.34-.7 3.14-.7 1.76 0 3.28.62a7 7 0 0 1 2.64 1.9q1.12 1.28 1.76 3.22t.64 4.62q0 5.2-2.92 8.06t-8.24 2.86q-1 0-2-.12v9.24h-6.04zm6.04 10.76q1 .2 2.04.2 2.24 0 3.56-1.32t1.32-4.2q0-2.2-.92-3.64t-2.8-1.44q-1.72 0-2.46 1.22t-.74 2.98z"/></g></g></svg><style>@media (prefers-color-scheme:light){:root{filter:none}}@media (prefers-color-scheme:dark){:root{filter:contrast(1) brightness(1.3)}}</style></svg>