<svg xmlns="http://www.w3.org/2000/svg" width="3165.2892561983467" height="913.5747643969005" viewBox="-24.793388429752063 0 3165.2892561983467 913.5747643969005"><path fill="#2a877a" d="M488.658 82.645a19.78 19.78 0 0 0-19.782 19.782v48.356c-133.374 3.517-208.722 28.925-212.063 30.068a19.34 19.34 0 0 0-10.198 8.265c-10.287 12.133-56.181 69.72-104.361 179.093h-23.475a61.544 61.544 0 0 0-60.928 60.928v3.253a61.544 61.544 0 0 0 61.016 61.104h2.638v227.097a71.567 71.567 0 0 0 71.479 71.479h54.598a71.567 71.567 0 0 0 71.567-71.479h149.463v90.557a19.782 19.782 0 1 0 39.564 0V102.427a19.78 19.78 0 0 0-19.518-19.782m216.898 197.116a178.653 178.653 0 1 0 178.741 178.565 178.653 178.653 0 0 0-178.74-178.565m40.266 218.48v52.753a16.705 16.705 0 0 1-16.704 16.705H682.08a16.705 16.705 0 0 1-16.704-16.705v-52.752a89.327 89.327 0 0 1 0-149.464v66.204a16.705 16.705 0 0 0 16.704 16.705h46.862a16.705 16.705 0 0 0 16.705-16.705v-66.204a89.327 89.327 0 0 1 0 149.464Z"/><path fill="#2a2929" d="M7.56 17.08H.72V11.4h20.6l-.92 2.8-.92 2.88h-5.36l.12 1.12V40H7.56zm13.08 2.04h6.08V30q0 1.4.24 2.34c.24.94.4 1.12.72 1.48s.713.613 1.18.76 1.02.22 1.66.22q1.16 0 2.08-.12l-.08-.72V19.12h6.08v19.76q-1.48.52-3.54.92c-2.06.4-2.78.4-4.22.4q-2.04 0-3.9-.32c-1.86-.32-2.327-.667-3.26-1.36s-1.673-1.7-2.22-3.02-.82-3.1-.82-5.34zm22.84 4.96h-3.36l2.64-4.96h5.8l.52 2.24q1-1.08 2.38-1.8c1.38-.72 1.98-.72 3.18-.72q3.64 0 5.4 1.94c1.76 1.94 1.76 3.34 1.76 6.14V40h-6.08V27.96q0-1.84-.9-2.64c-.9-.8-1.367-.8-2.3-.8q-1.16 0-2.08.78c-.92.78-.92 1.38-.92 2.58V40h-6.04zm31.56-5.2q2.08 0 3.74.58c1.66.58 2.033 1.013 2.78 1.88s1.32 1.98 1.72 3.34.6 3 .6 4.92v.62l-.08 1.26H72.6l-.84-.12q.04 1.16.26 1.86c.22.7.36.833.64 1.1s.62.453 1.02.56.853.173 1.36.2q1.24.08 2.14-.36c.9-.44 1.167-.893 1.7-1.8q1.24.4 2.28.76.88.32 1.6.56c.72.24.72.227.72.2q-1.44 3-3.5 4.38c-2.06 1.38-3.02 1.38-4.94 1.38q-2.12 0-3.84-.56c-1.72-.56-2.12-.98-2.92-1.82s-1.42-1.933-1.86-3.28-.66-2.993-.66-4.94q0-2.84.66-4.86c.66-2.02 1.06-2.453 1.86-3.32s1.773-1.507 2.92-1.92 2.427-.62 3.84-.62m2.2 8 .6.08q-.08-1.4-.74-2.18c-.66-.78-1.127-.78-2.06-.78q-1.6 0-2.3.78c-.7.78-.753 1.247-.86 2.18q.2-.04.36-.06c.16-.02.227-.02.36-.02zM87.76 11.4h6.56v15.28q0 2.24.2 3.78c.2 1.54.36 1.853.68 2.48s.76 1.073 1.32 1.34 1.267.4 2.12.4q1.32 0 2.16-.4c.84-.4 1-.707 1.32-1.32s.547-1.433.68-2.46.2-2.3.2-3.82V11.4h6.56v16.48q0 2.96-.5 5.28c-.5 2.32-.913 2.86-1.74 3.94s-1.94 1.907-3.34 2.48-3.18.86-5.34.86q-3.2 0-5.3-.86c-2.1-.86-2.513-1.4-3.34-2.48s-1.407-2.393-1.74-3.94-.5-3.307-.5-5.28zm28.04 12.64h-4l2.64-4.92h6.32l.52 2.32q.92-1.08 2.26-1.78c1.34-.7 1.94-.7 3.14-.7q1.76 0 3.28.62c1.52.62 1.893 1.047 2.64 1.9s1.333 1.927 1.76 3.22.64 2.833.64 4.62q0 5.2-2.92 8.06c-2.92 2.86-4.693 2.86-8.24 2.86q-1 0-2-.12v9.24h-6.04zm6.04 10.76q1 .2 2.04.2 2.24 0 3.56-1.32c1.32-1.32 1.32-2.28 1.32-4.2q0-2.2-.92-3.64c-.92-1.44-1.547-1.44-2.8-1.44q-1.72 0-2.46 1.22c-.74 1.22-.74 1.807-.74 2.98z" style="fill:#f9fafb;fill-opacity:1" transform="translate(1063.745 13.428)scale(14.77115)"/></svg>