<svg xmlns="http://www.w3.org/2000/svg" width="826.000000pt" height="826.000000pt" version="1.0" viewBox="0 0 826.000000 826.000000"><path d="M424.9 40c-3.3 1-8 4-10.1 6.5-3.5 4.2-4 9.4-4 35.2l.1 25.3-3.2.1c-20.5.6-53.4 2.7-69.2 4.3-2.7.3-7.9.8-11.5 1.2-3.6.3-7.6.7-9 1-1.4.2-4.7.7-7.5 1-2.7.2-6.6.7-8.5 1s-4.8.7-6.3.9c-22.1 3.1-38.7 6.1-58.7 10.7-9.6 2.2-18.3 4.1-19.2 4.1-1 .1-1.8.4-1.8.7s-.8.6-1.7.7c-1 .1-5.6 1.4-10.3 2.8-10.1 3.3-12.1 5-24 21-2.5 3.3-4.7 6.2-5 6.5-1 .9-12.5 17.4-15.5 22.2-1.7 2.7-3.3 4.8-3.7 4.8-.5 0-.8.6-.8 1.3s-.7 2.2-1.5 3.2C150.6 198.3 141 214 141 215c0 .5-.4 1-1 1-.5 0-1 .4-1 .9s-1.7 3.8-3.8 7.2c-2.1 3.5-4.9 8.4-6.3 10.9-1.3 2.5-2.6 4.7-2.9 5-.7.7-5.6 10.2-17.9 34.5-12.9 25.6-20.1 41-20.1 43 0 .8-.4 1.5-.8 1.5-.5 0-1.2 1.2-1.8 2.7l-.9 2.7-16 .2c-14 .2-17.3.5-22 1.8-.5.2-2.3.6-4 1.1-1.6.4-4.8 1.7-7 2.8-2.2 1.2-4.3 2-4.7 1.9-.5-.1-.8.3-.8.8 0 .6-.4 1-1 1-2.1 0-17 13.8-17 15.7 0 .7-.4 1.3-.8 1.3-1 0-7.9 13.8-8.6 17.2-.3 1.3-1 4-1.5 6.2-1.3 5.5-1 20.8.6 27.8 6 26 29.3 45.7 55.8 47.3 2.8.2 5.2.4 5.5.4.3.1.6 52.4.6 116.3.1 64 .4 118.1.8 120.3 1.4 8.2 1.9 10.2 4.4 16.5 9.2 23.4 32.5 41.5 57.2 44.5 7.4.8 65.4.9 72.1 0 20.5-2.5 38.7-13.5 50.3-30.3 3.5-5.1 8.4-14.7 9.1-18.1.2-.9.9-3.2 1.5-5.1.5-1.9 1.3-6.4 1.6-10 .4-3.6.8-6.7 1-6.9.3-.4 136-.5 146.4-.2l2.5.1v45.7c-.1 50.4.1 52.2 5.7 58 4.6 4.8 9.2 6.6 15.4 6 9.3-.9 16.3-7 18.1-15.7.1-.8.3-162 .3-358.1.1-294.6-.2-357.4-1.3-360.6-3.4-9.8-14-15.3-23.8-12.3m207.9 196.5c-.1.1-2.8.6-5.8.9-3 .4-6.6.8-8 1-4.9.6-10.6 1.8-17.4 3.8-3.8 1.1-7.6 2.1-8.5 2.3-3.4.7-16 5.9-25.5 10.7-18.2 9.1-32.3 19.2-46.1 33.2-9.5 9.6-17.5 19-17.5 20.5 0 .6-.4 1.1-.8 1.1-.9 0-6.2 7.7-6.2 8.9 0 .4-.9 1.7-2 2.9-1.2 1.2-1.8 2.2-1.4 2.2.3 0 .2.6-.4 1.2-4.5 5.5-15.5 31.3-17.7 41.3-.1.5-.7 2.8-1.3 5s-1.4 5.8-1.7 8-.8 4.5-1 5.2c-1.9 5.8-2.8 45-1.1 53.8.4 2.2.9 5.3 1.2 7 2.3 14.3 7 29.1 14.2 44.5 2 4.1 3.6 7.7 3.6 8 .7 3.1 17 26.9 23.1 33.7 8.9 9.8 20.1 20.3 25.8 24.2 1.2.8 2.4 1.7 2.7 2 .5.6 10 7 14.5 9.9 9 5.6 35.9 17.2 43.8 18.7 1 .3 2.7.7 3.7 1 4.2 1.3 19.8 4.1 28.5 5 6.3.7 24.4.7 31 .1 10.6-1.1 14.8-1.8 23-3.6 2.8-.6 5.7-1.2 6.5-1.4s2.2-.6 3-.9 5.1-1.7 9.5-3c4.4-1.4 9.4-3.2 11-4 1.7-.8 7.2-3.4 12.3-5.8 5-2.4 9.2-4.7 9.2-5.1s.6-.8 1.4-.8 2.1-.6 2.8-1.3 3.3-2.5 5.8-3.9c5.1-3.1 7.3-4.7 17.9-13.9 10.3-8.9 19.6-19 26.1-28.4 1.9-2.8 3.7-5.2 4-5.5 2.4-2.2 17.5-30 16.4-30-.4 0-.2-.6.4-1.3 1-1.2 8-21.3 8.8-25.2.7-3.6 1.2-6 1.8-8.5 2.3-9.7 3.1-19.2 3.1-35.5-.1-14.3-.8-26.4-1.9-29.6-.3-.7-.7-2.8-.9-4.4-1.2-8.2-6.9-26.3-11.3-36.3-1.3-2.9-2.4-5.6-2.4-6 0-.5-.5-1.3-1.2-2-.6-.6-1.3-1.8-1.4-2.5-.2-1.6-8-14.6-13-21.8-6.1-8.8-11.1-14.7-21.1-24.4-10.5-10.4-10.6-10.5-19.3-16.7-3.6-2.6-7-5.2-7.7-5.8-.7-.5-1.5-1-1.9-1-.3 0-1.8-.9-3.3-1.9-2.7-1.9-22.3-12.1-23.3-12.1-.3 0-2.3-.8-4.4-1.7-2.2-.9-4.1-1.7-4.4-1.8s-1.8-.5-3.5-1c-1.6-.4-3.6-1.2-4.2-1.8-.7-.5-1.3-.7-1.3-.3 0 .3-1.1.1-2.5-.4s-3.6-1.2-4.8-1.4-4.4-1-7.2-1.6c-2.7-.7-6.3-1.3-8-1.5-1.6-.2-4.3-.6-6-1-3.1-.7-37.1-1.6-37.7-1m-25.6 103.7c-.1 23.1.2 34.6 1 35.5.6.7.7 1.3.4 1.3-1.3 0 2.5 5.5 5.1 7.4 2.8 2.1 13.3 4.9 13.3 3.6 0-.4 1.7-.6 3.8-.3 2 .2 4.4.4 5.2.4s9.8-.1 20-.2c19.9-.1 23-.8 27.5-6.1 3.7-4.2 4-8.4 4-42.6-.1-22.8.2-33.2.9-33.2 1.5.1 7.8 5.4 14.3 12 5 5.1 15 18.9 14.6 20-.1.3.5 1.5 1.3 2.7 1.6 2.6 5.9 14.3 6.8 18.8.4 1.6.9 4.1 1.2 5.5s.7 6.9.8 12.2c.4 12.7-1.3 23.3-5.7 34.8-2.6 6.8-11.4 22-12.8 22-.6 0-.8.4-.5.8.5.8-11.8 13.1-17.4 17.3l-3.5 2.6.1 27.4c.1 29.5-.2 31.8-5.2 37-2.7 2.8-10.3 5.5-12.7 4.6-.8-.3-3.1-.2-5 .3-2 .4-3.8.6-4.1.3-.2-.3-9.3-.5-20.2-.5s-21-.4-22.4-1c-3.2-1.1-8.2-6.2-9.8-10.1-.8-1.9-1.1-11.1-.9-30.7.1-20.8-.1-28-1-28-.6 0-1.3-.3-1.5-.8-.1-.4-2.3-2.3-4.8-4.2-13.2-10.3-22.9-24.5-28.5-41.4-2.1-6.4-2.8-9.1-4.1-17.6-.9-5.8-.4-19.5 1-26.5 1.2-6.1 1.5-7.1 3.1-12 4.4-12.8 12-25.2 20.9-34.2 5.6-5.6 13.9-12.3 14.5-11.7.2.2.3 15.7.3 34.6"/></svg>